<svg fill="none" height="24" viewBox="0 0 24 24" width="24" xmlns="http://www.w3.org/2000/svg" xmlns:xlink="http://www.w3.org/1999/xlink"><clipPath id="a"><path d="m4 4h16v16h-16z"/></clipPath><g clip-path="url(#a)" fill="#727586"><path d="m19.9958 20v-.0007h.004v-5.868c0-2.8707-.618-5.08198-3.974-5.08198-1.6133 0-2.696.88533-3.138 1.72468h-.0466v-1.45668h-3.18202v10.68198h3.31332v-5.2893c0-1.3927.264-2.7394 1.9887-2.7394 1.6993 0 1.7246 1.5894 1.7246 2.8287v5.2007z"/><path d="m4.26367 9.31787h3.31734v10.68203h-3.31734z"/><path d="m5.92133 4c-1.06066 0-1.92133.86067-1.92133 1.92133 0 1.06067.86067 1.93934 1.92133 1.93934 1.06067 0 1.92134-.87867 1.92134-1.93934-.00067-1.06066-.86134-1.92133-1.92134-1.92133z"/></g></svg>